<?xml version='1.0' encoding='UTF-8' standalone='no'?>
<!-- Created with Fritzing (http://www.fritzing.org/) -->
<svg xmlns="http://www.w3.org/2000/svg" baseProfile="tiny" x="0in" y="0in" height="0.33in" viewBox="0 0 1200 330" version="1.2" width="1.2in" >
    <desc >
        <referenceFile >generic_ic_dip_24_300mil_bread.svg</referenceFile>
    </desc>
    <g gorn="0.1" id="breadboard" >
        <rect x="0" y="30" height="270" fill="#303030" gorn="0.1.0" id="middle" width="1200" />
        <rect x="0" y="30" height="24.6" fill="#3D3D3D" gorn="0.1.1" id="top" width="1200" />
        <rect x="0" y="275.4" height="24.6" fill="#000000" gorn="0.1.2" id="bottom" width="1200" />
        <polygon points="1200,30,1192.5,54.6,1192.5,275.4,1200,300" fill="#141414" gorn="0.1.3" id="right" />
        <polygon points="0,30,7.5,54.6,7.5,275.4,0,300" fill="#1F1F1F" gorn="0.1.4" id="left" />
        <polygon points="50,115,7.5,114.6,5.6,135.8,5.6,165,50,165" fill="#1C1C1C" gorn="0.1.5" id="left-upper-rect" />
        <polygon points="7.5,215.5,50,215.5,50,165,5.6,165,5.6,194.2" fill="#383838" gorn="0.1.6" id="left-lower-rect" />
        <path fill="#262626" gorn="0.1.7" id="slot" d="M5.6,135.8l0,58.3c14.7,-1.7,26.2,-14,26.2,-29.2C31.8,149.7,20.4,137.5,5.6,135.8z" />
        <path fill="#303030" gorn="0.1.8" id="cover" d="M7.5,54.6L7.5,114.5c23.8,4.5,41.9,25.3,41.9,50.4c0,25.1,-18,46,-41.9,50.5L7.5,215.5l50,0L57.5,54.6L7.5,54.6z" />
        <circle cx="65" cy="234.7" r="20.6" fill="#212121" />
        <text x="65" stroke="none" font-family="OCRA" font-size="80" y="165" fill="#e6e6e6" gorn="0.1.10" id="label" text-anchor="start" >TM1818</text>
        <rect x="35" y="286.6" height="43.4" fill="#8C8C8C" gorn="0.1.11" id="connector0pin" width="30" />
        <rect x="35" y="300" height="30" fill="#8C8C8C" gorn="0.1.12" id="connector0terminal" width="30" />
        <polygon points="35,286.6,35,306.6,65,306.6,85,297.4,85,286.6" fill="#8C8C8C" />
        <rect x="35" height="43.4" fill="#8C8C8C" gorn="0.1.14" id="connector23pin" width="30" />
        <rect x="35" height="30" fill="#8C8C8C" gorn="0.1.15" id="connector23terminal" width="30" />
        <polygon points="85,43.4,85,32.6,65,23.4,35,23.4,35,43.4" fill="#8C8C8C" />
        <rect x="1135" y="286.6" height="43.4" fill="#8C8C8C" gorn="0.1.17" id="connector11pin" width="30" />
        <rect x="1135" y="300" height="30" fill="#8C8C8C" gorn="0.1.18" id="connector11terminal" width="30" />
        <polygon points="1115,286.6,1115,297.4,1135,306.6,1165,306.6,1165,286.6" fill="#8C8C8C" />
        <rect x="1135" y="0" height="43.4" fill="#8C8C8C" gorn="0.1.20" id="connector12pin" width="30" />
        <rect x="1135" y="0" height="30" fill="#8C8C8C" gorn="0.1.21" id="connector12terminal" width="30" />
        <polygon points="1165,43.4,1165,23.4,1135,23.4,1115,32.6,1115,43.4" fill="#8C8C8C" />
        <rect x="135" y="0" height="43.4" fill="#8C8C8C" gorn="0.1.23" id="connector22pin" width="30" />
        <rect x="135" height="30" fill="#8C8C8C" gorn="0.1.24" id="connector22terminal" width="30" />
        <polygon points="185,43.4,185,32.6,165,23.4,135,23.4,115,32.6,115,43.4" fill="#8C8C8C" />
        <rect x="235" y="0" height="43.4" fill="#8C8C8C" gorn="0.1.26" id="connector21pin" width="30" />
        <rect x="235" height="30" fill="#8C8C8C" gorn="0.1.27" id="connector21terminal" width="30" />
        <polygon points="285,43.4,285,32.6,265,23.4,235,23.4,215,32.6,215,43.4" fill="#8C8C8C" />
        <rect x="335" y="0" height="43.4" fill="#8C8C8C" gorn="0.1.29" id="connector20pin" width="30" />
        <rect x="335" height="30" fill="#8C8C8C" gorn="0.1.30" id="connector20terminal" width="30" />
        <polygon points="385,43.4,385,32.6,365,23.4,335,23.4,315,32.6,315,43.4" fill="#8C8C8C" />
        <rect x="435" y="0" height="43.4" fill="#8C8C8C" gorn="0.1.32" id="connector19pin" width="30" />
        <rect x="435" height="30" fill="#8C8C8C" gorn="0.1.33" id="connector19terminal" width="30" />
        <polygon points="485,43.4,485,32.6,465,23.4,435,23.4,415,32.6,415,43.4" fill="#8C8C8C" />
        <rect x="535" y="0" height="43.4" fill="#8C8C8C" gorn="0.1.35" id="connector18pin" width="30" />
        <rect x="535" height="30" fill="#8C8C8C" gorn="0.1.36" id="connector18terminal" width="30" />
        <polygon points="585,43.4,585,32.6,565,23.4,535,23.4,515,32.6,515,43.4" fill="#8C8C8C" />
        <rect x="635" y="0" height="43.4" fill="#8C8C8C" gorn="0.1.38" id="connector17pin" width="30" />
        <rect x="635" height="30" fill="#8C8C8C" gorn="0.1.39" id="connector17terminal" width="30" />
        <polygon points="685,43.4,685,32.6,665,23.4,635,23.4,615,32.6,615,43.4" fill="#8C8C8C" />
        <rect x="735" y="0" height="43.4" fill="#8C8C8C" gorn="0.1.41" id="connector16pin" width="30" />
        <rect x="735" height="30" fill="#8C8C8C" gorn="0.1.42" id="connector16terminal" width="30" />
        <polygon points="785,43.4,785,32.6,765,23.4,735,23.4,715,32.6,715,43.4" fill="#8C8C8C" />
        <rect x="835" y="0" height="43.4" fill="#8C8C8C" gorn="0.1.44" id="connector15pin" width="30" />
        <rect x="835" height="30" fill="#8C8C8C" gorn="0.1.45" id="connector15terminal" width="30" />
        <polygon points="885,43.4,885,32.6,865,23.4,835,23.4,815,32.6,815,43.4" fill="#8C8C8C" />
        <rect x="935" y="0" height="43.4" fill="#8C8C8C" gorn="0.1.47" id="connector14pin" width="30" />
        <rect x="935" height="30" fill="#8C8C8C" gorn="0.1.48" id="connector14terminal" width="30" />
        <polygon points="985,43.4,985,32.6,965,23.4,935,23.4,915,32.6,915,43.4" fill="#8C8C8C" />
        <rect x="1035" y="0" height="43.4" fill="#8C8C8C" gorn="0.1.50" id="connector13pin" width="30" />
        <rect x="1035" height="30" fill="#8C8C8C" gorn="0.1.51" id="connector13terminal" width="30" />
        <polygon points="1085,43.4,1085,32.6,1065,23.4,1035,23.4,1015,32.6,1015,43.4" fill="#8C8C8C" />
        <rect x="135" y="286.6" height="43.4" fill="#8C8C8C" gorn="0.1.53" id="connector1pin" width="30" />
        <rect x="135" y="300" height="30" fill="#8C8C8C" gorn="0.1.54" id="connector1terminal" width="30" />
        <polygon points="115,286.6,115,297.4,135,306.6,165,306.6,185,297.4,185,286.6" fill="#8C8C8C" />
        <rect x="235" y="286.6" height="43.4" fill="#8C8C8C" gorn="0.1.56" id="connector2pin" width="30" />
        <rect x="235" y="300" height="30" fill="#8C8C8C" gorn="0.1.57" id="connector2terminal" width="30" />
        <polygon points="215,286.6,215,297.4,235,306.6,265,306.6,285,297.4,285,286.6" fill="#8C8C8C" />
        <rect x="335" y="286.6" height="43.4" fill="#8C8C8C" gorn="0.1.59" id="connector3pin" width="30" />
        <rect x="335" y="300" height="30" fill="#8C8C8C" gorn="0.1.60" id="connector3terminal" width="30" />
        <polygon points="315,286.6,315,297.4,335,306.6,365,306.6,385,297.4,385,286.6" fill="#8C8C8C" />
        <rect x="435" y="286.6" height="43.4" fill="#8C8C8C" gorn="0.1.62" id="connector4pin" width="30" />
        <rect x="435" y="300" height="30" fill="#8C8C8C" gorn="0.1.63" id="connector4terminal" width="30" />
        <polygon points="415,286.6,415,297.4,435,306.6,465,306.6,485,297.4,485,286.6" fill="#8C8C8C" />
        <rect x="535" y="286.6" height="43.4" fill="#8C8C8C" gorn="0.1.65" id="connector5pin" width="30" />
        <rect x="535" y="300" height="30" fill="#8C8C8C" gorn="0.1.66" id="connector5terminal" width="30" />
        <polygon points="515,286.6,515,297.4,535,306.6,565,306.6,585,297.4,585,286.6" fill="#8C8C8C" />
        <rect x="635" y="286.6" height="43.4" fill="#8C8C8C" gorn="0.1.68" id="connector6pin" width="30" />
        <rect x="635" y="300" height="30" fill="#8C8C8C" gorn="0.1.69" id="connector6terminal" width="30" />
        <polygon points="615,286.6,615,297.4,635,306.6,665,306.6,685,297.4,685,286.6" fill="#8C8C8C" />
        <rect x="735" y="286.6" height="43.4" fill="#8C8C8C" gorn="0.1.71" id="connector7pin" width="30" />
        <rect x="735" y="300" height="30" fill="#8C8C8C" gorn="0.1.72" id="connector7terminal" width="30" />
        <polygon points="715,286.6,715,297.4,735,306.6,765,306.6,785,297.4,785,286.6" fill="#8C8C8C" />
        <rect x="835" y="286.6" height="43.4" fill="#8C8C8C" gorn="0.1.74" id="connector8pin" width="30" />
        <rect x="835" y="300" height="30" fill="#8C8C8C" gorn="0.1.75" id="connector8terminal" width="30" />
        <polygon points="815,286.6,815,297.4,835,306.6,865,306.6,885,297.4,885,286.6" fill="#8C8C8C" />
        <rect x="935" y="286.6" height="43.4" fill="#8C8C8C" gorn="0.1.77" id="connector9pin" width="30" />
        <rect x="935" y="300" height="30" fill="#8C8C8C" gorn="0.1.78" id="connector9terminal" width="30" />
        <polygon points="915,286.6,915,297.4,935,306.6,965,306.6,985,297.4,985,286.6" fill="#8C8C8C" />
        <rect x="1035" y="286.6" height="43.4" fill="#8C8C8C" gorn="0.1.80" id="connector10pin" width="30" />
        <rect x="1035" y="300" height="30" fill="#8C8C8C" gorn="0.1.81" id="connector10terminal" width="30" />
        <polygon points="1015,286.6,1015,297.4,1035,306.6,1065,306.6,1085,297.4,1085,286.6" fill="#8C8C8C" />
    </g>
</svg>
