<?xml version='1.0' encoding='utf-8'?>
<svg xmlns="http://www.w3.org/2000/svg" baseProfile="tiny" xml:space="preserve" height="0.33in" xmlns:xml="http://www.w3.org/XML/1998/namespace" viewBox="0 0 30.0 33.0" gorn="0" version="1.2" id="svg2" width="0.3in" >
    <desc >
        <referenceFile >dip_icon.svg</referenceFile>
    </desc>
    <g gorn="0.1" id="icon" >
        <rect x="0" y="3" height="27.0" fill="#303030" gorn="0.1.0" id="middle" width="30.0" />
        <rect x="0" y="3.0" height="2.46" fill="#3D3D3D" gorn="0.1.1" id="top" width="30.0" />
        <rect x="0" y="27.54" height="2.46" fill="#000000" gorn="0.1.2" id="bottom" width="30.0" />
        <polygon points="30.0,3 29.25,5.46 29.25,27.54 30.0,30.0" fill="#141414" gorn="0.1.3" id="right" />
        <polygon points="0,3 0.75,5.46 0.75,27.54 0,30.0" fill="#1F1F1F" gorn="0.1.4" id="left" />
        <polygon points="5,11.5 0.75,11.46 0.56,13.58 0.56,16.5 5,16.5" fill="#1C1C1C" gorn="0.1.5" id="left-upper-rect" />
        <polygon points="0.75,21.55 5,21.55 5,16.5 0.56,16.5 0.56,19.42" fill="#383838" gorn="0.1.6" id="left-lower-rect" />
        <path fill="#262626" gorn="0.1.7" id="slot" d="M0.56,13.58v5.83c1.47-0.17,2.62-1.4,2.62-2.92C3.18,14.97,2.04,13.75,0.56,13.58z" />
        <path fill="#303030" gorn="0.1.8" id="cover" d="M0.75,5.46V11.45c2.38,0.45,4.19,2.53,4.19,5.04c0,2.51-1.8,4.6-4.19,5.05V21.55h5.0V5.46H0.75z" />
        <circle cx="6.5" cy="23.47" r="2.06" fill="#212121" />
        <text x="6.5" stroke="none" font-family="OCRA" font-size="8" y="16.5" fill="#dddddd" gorn="0.1.10" id="label" text-anchor="start" >IC</text>
        <rect x="3.5" y="28.66" height="4.34" fill="#8C8C8C" gorn="0.1.11" id="connector0pin" width="3" />
        <rect x="3.5" y="30.0" height="3" fill="#8C8C8C" gorn="0.1.12" id="connector0terminal" width="3" />
        <polygon points="3.5,28.66 3.5,30.66 6.5,30.66 8.5,29.74 8.5,28.66 &#x9;" fill="#8C8C8C" />
        <rect x="3.5" height="4.34" fill="#8C8C8C" gorn="0.1.14" id="connector5pin" width="3" />
        <rect x="3.5" height="3" fill="#8C8C8C" gorn="0.1.15" id="connector5terminal" width="3" />
        <polygon points="8.5,4.34 8.5,3.26 6.5,2.34 3.5,2.34 3.5,4.34" fill="#8C8C8C" />
        <rect x="23.5" y="28.66" height="4.34" fill="#8C8C8C" gorn="0.1.17" id="connector2pin" width="3" />
        <rect x="23.5" y="30.0" height="3" fill="#8C8C8C" gorn="0.1.18" id="connector2terminal" width="3" />
        <polygon points="21.5,28.66 21.5,29.74 23.5,30.66 26.5,30.66 26.5,28.66" fill="#8C8C8C" />
        <rect x="23.5" y="0" height="4.34" fill="#8C8C8C" gorn="0.1.20" id="connector3pin" width="3" />
        <rect x="23.5" y="0" height="3" fill="#8C8C8C" gorn="0.1.21" id="connector3terminal" width="3" />
        <polygon points="26.5,4.34 26.5,2.34 23.5,2.34 21.5,3.26 21.5,4.34 &#x9;" fill="#8C8C8C" />
        <rect x="13.5" y="28.66" height="4.34" fill="#8C8C8C" gorn="0.1.23" id="connector1pin" width="3" />
        <rect x="13.5" y="30.0" height="3" fill="#8C8C8C" gorn="0.1.24" id="connector1terminal" width="3" />
        <polygon points="11.5,28.66 11.5,29.74 13.5,30.66 16.5,30.66 18.5,29.74 18.5,28.66" fill="#8C8C8C" />
        <rect x="13.5" y="0" height="4.34" fill="#8C8C8C" gorn="0.1.26" id="connector4pin" width="3" />
        <rect x="13.5" height="3" fill="#8C8C8C" gorn="0.1.27" id="connector4terminal" width="3" />
        <polygon points="18.5,4.34 18.5,3.26 16.5,2.34 13.5,2.34 11.5,3.26 11.5,4.34" fill="#8C8C8C" />
    </g>
</svg>
